<svg width="21" height="20" fill="none" xmlns="http://www.w3.org/2000/svg"><rect x=".1328" width="20" height="20" rx="10" fill="#7DB54F"/><path d="M6.2637 11.76h1.4V6.92l.1-.59-.4.47-1.1.79-.38-.51 2.2-1.7h.36v6.38h1.37v.74h-3.55v-.74Zm7.8292-4.67c0 .3533-.0666.7167-.2 1.09-.1266.3667-.2966.7367-.51 1.11-.2066.3733-.44.74-.7 1.1-.26.3533-.52.69-.78 1.01l-.49.43v.04l.64-.11h2.18v.74h-3.98v-.29c.1467-.1533.3234-.3433.53-.57.2067-.2267.42-.4767.64-.75.2267-.28.4467-.5733.66-.88.22-.3133.4167-.63.59-.95.18-.32.3234-.6367.43-.95.1067-.3133.16-.61.16-.89 0-.3267-.0933-.5967-.28-.81-.1866-.22-.47-.33-.85-.33-.2533 0-.5.0533-.74.16-.24.1-.4466.2167-.62.35l-.33-.57c.2334-.2.51-.3567.83-.47.32-.1133.6634-.17 1.03-.17.2867 0 .54.0433.76.13.22.08.4067.1967.56.35.1534.1533.27.3367.35.55.08.2067.12.4333.12.68Z" fill="#fff"/></svg>